<svg id="Capa_1" enable-background="new 0 0 508 508" height="512" viewBox="0 0 508 508" width="512" xmlns="http://www.w3.org/2000/svg"><g><path d="m478 64h-448c-11.046 0-20 8.954-20 20v360h488v-360c0-11.046-8.954-20-20-20z" fill="#fff"/><path d="m10 144v-60c0-11.046 8.954-20 20-20h448c11.046 0 20 8.954 20 20v60z" fill="#80b6ff"/><circle cx="196" cy="234" fill="#ffee80" r="36"/><path d="m267.946 353.586 96.721 90.414h-354.667v-61.353l76.516-95.184c4.009-4.987 11.605-4.978 15.603.018l81.145 101.432 37.791-35.327c13.196-12.336 33.694-12.336 46.891 0zm86.629-60.403c-2.86 10.586-8.442 20.589-16.753 28.901-7.62 7.62-16.664 12.94-26.273 15.98-8.493 2.688-27.151 8.598-40.765 12.911-6.726 2.131-13.06-4.203-10.929-10.929 4.313-13.614 10.223-32.271 12.911-40.765 3.041-9.609 8.36-18.653 15.98-26.273 8.311-8.311 18.315-13.893 28.901-16.753 9.352-9.351 46.279 27.577 36.928 36.928z" fill="#d5ea79"/><path d="m354.582 293.19 98.502-98.332c20.523-20.523 35.325-44.602 44.406-70.253 2.431-6.866-4.228-13.525-11.094-11.094-25.651 9.08-49.729 23.882-70.253 44.406l-98.502 98.332z" fill="#a7bdcd"/><path d="m328.876 231.115h49.497v52.241h-49.497z" fill="#fff" transform="matrix(.708 -.707 .707 .708 -78.376 325.024)"/><path d="m105 104c0 5.523-4.477 10-10 10s-10-4.477-10-10 4.477-10 10-10 10 4.477 10 10zm-55-10c-5.523 0-10 4.477-10 10s4.477 10 10 10 10-4.477 10-10-4.477-10-10-10zm458-10v360c0 5.523-4.477 10-10 10h-199c-5.739 0-10.373-4.873-9.976-10.694.361-5.306 5.016-9.306 10.334-9.306h39.967l-78.208-73.109c-9.318-8.71-23.917-8.71-33.234 0l-37.792 35.327c-3.89 3.661-10.761 3.807-14.637-1.058l-81.321-101.66-74.133 92.667v47.833h189.01c5.737.01 10.357 4.866 9.967 10.685-.356 5.309-5.009 9.315-10.329 9.315h-198.648c-5.523 0-10-4.477-10-10v-360c0-16.568 13.431-30 30-30h448c16.569 0 30 13.432 30 30zm-244.769 212.264c6.909-22.103 25.188-41.458 49.134-48.881l93.545-93.383h-385.91v200.15l58.513-73.141c8.007-10.008 23.228-10.008 31.235 0l74.577 93.222 29.9-27.951c10.184-9.519 23.828-13.321 36.782-11.42 4.235-13.362 9.705-30.536 12.224-38.596zm126.388-52.182 56.398-56.301c18.337-18.336 32.154-39.821 41.095-63.894-24.071 8.939-45.557 22.757-63.899 41.1l-56.393 56.295zm-36.954-8.669-20.877 20.841 22.799 22.799 20.877-20.841zm-82.524 105.276c13.334-4.224 30.358-9.702 38.392-12.159 18.081-5.53 29.823-20.046 34.618-32.628l-28.222-28.222c-15.671 5.837-28.058 19.514-32.629 34.62-2.433 8.038-7.935 25.055-12.159 38.389zm217.859-173.624c-7.865 12.524-17.16 24.179-27.846 34.864l-96.711 96.544c-6.766 22.526-26.12 42.215-48.878 49.125-6.173 1.874-17.632 5.583-28.668 9.079l82.716 77.323h119.387zm0-83.065c0-5.514-4.486-10-10-10h-448c-5.514 0-10 4.486-10 10v50h408.202c16.559-12.824 41.959-26.839 59.798-30.948zm-246 150c0 25.364-20.636 46-46 46s-46-20.636-46-46 20.636-46 46-46 46 20.636 46 46zm-20 0c0-14.336-11.664-26-26-26s-26 11.664-26 26 11.664 26 26 26 26-11.664 26-26zm-82-140c-5.523 0-10 4.477-10 10s4.477 10 10 10 10-4.477 10-10-4.477-10-10-10zm124 350c0 5.51-4.49 10-10 10s-10-4.49-10-10 4.49-10 10-10 10 4.49 10 10z"/></g></svg>