<svg height="512pt" viewBox="0 -31 512 512" width="512pt" xmlns="http://www.w3.org/2000/svg"><g fill-rule="evenodd"><path d="m10 85.21875h492v354.488281h-492zm0 0" fill="#f8f8f8"/><path d="m10 10h492v75.21875h-492zm0 0" fill="#55b2ff"/><path d="m46.015625 125.222656h419.96875v111.984375h-419.96875zm0 0" fill="#ffe6bf"/><path d="m130 237.207031 75-78.75 29.25 38.25 64.3125-20.097656 83.4375 60.597656zm0 0" fill="#d0ec7e"/><path d="m502 0h-492c-5.523438 0-10 4.476562-10 10v75.21875.019531 354.46875c0 5.523438 4.476562 10 10 10h206c5.523438 0 10-4.476562 10-10 0-5.523437-4.476562-10-10-10h-196v-334.488281h472v334.488281h-196c-5.523438 0-10 4.476563-10 10 0 5.523438 4.476562 10 10 10h206c5.523438 0 10-4.476562 10-10v-429.707031c0-5.523438-4.476562-10-10-10zm-482 75.21875v-55.21875h472v55.21875zm0 0"/><path d="m463.925781 37.609375h-15.386719c-5.523437 0-10 4.480469-10 10 0 5.523437 4.476563 10 10 10h15.386719c5.523438 0 10-4.476563 10-10s-4.476562-10-10-10zm0 0"/><path d="m371.894531 37.609375h-15.386719c-5.523437 0-10 4.480469-10 10 0 5.523437 4.476563 10 10 10h15.386719c5.523438 0 10-4.476563 10-10s-4.476562-10-10-10zm0 0"/><path d="m417.914062 37.609375h-15.390624c-5.523438 0-10 4.480469-10 10 0 5.523437 4.476562 10 10 10h15.390624c5.519532 0 10-4.476563 10-10s-4.480468-10-10-10zm0 0"/><path d="m382.019531 247.207031h83.964844c5.523437 0 10-4.476562 10-10v-111.984375c0-5.523437-4.476563-10-10-10h-419.96875c-5.523437 0-10 4.476563-10 10v111.984375c0 5.523438 4.476563 10 10 10zm-326.003906-111.984375h399.96875v91.984375h-70.734375l-80.808594-58.6875c-2.558594-1.859375-5.84375-2.394531-8.859375-1.453125l-57.636719 18.011719-25-32.695313c-1.777343-2.324218-4.480468-3.753906-7.402343-3.910156-2.910157-.148437-5.765625.972656-7.78125 3.089844l-72.046875 75.644531h-69.699219zm97.316406 91.984375 50.835938-53.375 22.140625 28.949219c2.550781 3.335938 6.914062 4.71875 10.925781 3.46875l59.515625-18.597656 54.464844 39.554687zm0 0"/><path d="m214.066406 360.589844h-154.546875c-5.523437 0-10 4.476562-10 10 0 5.519531 4.476563 10 10 10h154.550781c5.519532 0 10-4.480469 10-10-.003906-5.523438-4.480468-10-10.003906-10zm0 0"/><path d="m214.066406 322.585938h-154.546875c-5.523437 0-10 4.476562-10 10 0 5.523437 4.476563 10 10 10h154.550781c5.519532 0 10-4.476563 10-10-.003906-5.523438-4.480468-10-10.003906-10zm0 0"/><path d="m214.066406 284.582031h-154.546875c-5.523437 0-10 4.480469-10 10 0 5.523438 4.476563 10 10 10h154.550781c5.519532 0 10-4.476562 10-10-.003906-5.519531-4.480468-10-10.003906-10zm0 0"/><path d="m452.480469 284.582031h-154.546875c-5.523438 0-10 4.480469-10 10 0 5.523438 4.476562 10 10 10h154.550781c5.523437 0 10-4.476562 10-10-.003906-5.519531-4.480469-10-10.003906-10zm0 0"/><path d="m452.480469 360.589844h-154.546875c-5.523438 0-10 4.476562-10 10 0 5.519531 4.476562 10 10 10h154.550781c5.523437 0 10-4.480469 10-10-.003906-5.523438-4.480469-10-10.003906-10zm0 0"/><path d="m452.480469 322.585938h-154.546875c-5.523438 0-10 4.476562-10 10 0 5.523437 4.476562 10 10 10h154.550781c5.523437 0 10-4.476563 10-10-.003906-5.523438-4.480469-10-10.003906-10zm0 0"/><path d="m256 429.707031c-5.507812 0-10 4.492188-10 10 0 5.507813 4.492188 10 10 10s10-4.492187 10-10c0-5.507812-4.492188-10-10-10zm0 0"/></g></svg>