<svg height="512pt" viewBox="-61 0 512 512.001" width="512pt" xmlns="http://www.w3.org/2000/svg"><path d="m225.820312 76.210938h54.027344v359.023437h-269.828125v-359.023437h53.4375" fill="#f5f0eb"/><path d="m64.003906 46.90625h161.855469v55.0625h-161.855469zm0 0" fill="#ff9f22"/><path d="m311.652344 465.867188.429687-.246094c11.167969-6.449219 25.453125-2.625 31.902344 8.546875l.5625.976562c.003906.007813.015625.007813.023437.003907 16.925782-14.742188 29.269532-34.605469 34.617188-57.179688 0-.011719-.007812-.019531-.015625-.019531h-.261719c-12.898437 0-23.355468-10.457031-23.355468-23.355469v-.480469c0-12.894531 10.457031-23.351562 23.355468-23.351562h1c.007813 0 .015625-.011719.015625-.019531-4.617187-22.636719-16.230469-42.722657-32.480469-57.910157-.007812-.007812-.019531-.003906-.027343.003907-4.808594 7.949218-13.652344 12.03125-22.371094 11.128906-3.167969-.324219-6.316406-1.308594-9.253906-3.003906l-.433594-.25c-11.171875-6.449219-14.996094-20.734376-8.542969-31.902344.003906-.007813 0-.019532-.007812-.023438-10.695313-3.492187-22.113282-5.390625-33.976563-5.390625-10.933593 0-21.484375 1.613281-31.445312 4.601563-.007813 0-.015625.011718-.007813.019531 5.421875 10.945313 1.476563 24.363281-9.25 30.554687l-.441406.253907c-10.914062 6.304687-24.800781 2.78125-31.4375-7.816407-.003906-.007812-.015625-.007812-.023438 0-16.265624 14.464844-28.175781 33.714844-33.535156 55.542969-.003906.007813.003906.015625.015625.015625 12.039063.929688 21.519531 10.984375 21.519531 23.261719v.511719c0 12.660156-10.082031 22.957031-22.652343 23.320312-.011719 0-.019531.011719-.015625.019532 4.335937 22.296874 15.449218 42.167968 31.109375 57.390624.007812.003907.019531.003907.023437-.003906 6.691406-10.421875 20.460938-13.84375 31.296875-7.585937l.429688.246093c11.171875 6.449219 14.996093 20.734376 8.546875 31.902344l-.148438.257813c-.003906.007812 0 .019531.011719.023437 11.273437 3.933594 23.386719 6.078125 36.003906 6.078125 10.496094 0 20.644531-1.484375 30.25-4.246093.011719 0 .015625-.011719.011719-.023438-6.421875-11.160156-2.59375-25.410156 8.558594-31.851562zm0 0" fill="#5ecef4"/><path d="m298.71875 349.695312c13.820312 8.476563 23.167969 23.800782 23.167969 41.203126 0 26.625-21.585938 48.207031-48.207031 48.207031-26.625 0-48.210938-21.582031-48.210938-48.207031 0-13.539063 5.582031-25.769532 14.5625-34.527344 1.917969-1.863282 3.984375-3.574219 6.1875-5.101563 7.792969-5.410156 17.253906-8.582031 27.460938-8.582031 9.097656 0 17.734374 2.597656 24.996093 6.980469" fill="#fff"/><path d="m379.171875 407.933594h-.261719c-7.355468 0-13.339844-5.984375-13.339844-13.339844v-.480469c0-7.355469 5.984376-13.339843 13.339844-13.339843h1c3.164063 0 6.15625-1.503907 8.046875-4.042969 1.707031-2.296875 2.347657-5.210938 1.78125-7.992188-4.957031-24.308593-17.214843-46.167969-35.441406-63.210937-2.03125-1.90625-4.789063-2.898438-7.574219-2.691406-2.898437.207031-5.574218 1.664062-7.316406 3.988281-.199219.265625-.382812.539062-.554688.824219-2.65625 4.386718-7.667968 6.890624-12.777343 6.355468-1.855469-.191406-3.632813-.773437-5.277344-1.722656l-.429687-.246094c-3.085938-1.78125-5.292969-4.65625-6.214844-8.097656s-.445313-7.035156 1.335937-10.121094c.027344-.046875.054688-.097656.082031-.144531 1.472657-2.652344 1.667969-5.839844.523438-8.652344-1.109375-2.730469-3.378906-4.839843-6.175781-5.753906-6.546875-2.140625-13.253907-3.679687-20.058594-4.65625v-198.398437c0-5.527344-4.484375-10.011719-10.015625-10.011719h-43.972656v-19.292969c0-5.53125-4.484375-10.015625-10.011719-10.015625h-35.109375c-4.601562-21.066406-23.394531-36.890625-45.820312-36.890625-22.425782 0-41.21875 15.824219-45.816407 36.890625h-35.109375c-5.53125 0-10.015625 4.484375-10.015625 10.015625v19.292969h-43.972656c-5.53125 0-10.015625 4.484375-10.015625 10.011719v359.023437c0 5.53125 4.484375 10.015625 10.015625 10.015625h155.667969c5.984375 12.191406 14.058594 23.332031 24.003906 32.996094 2.0625 2.003906 4.910156 3.039062 7.792969 2.808594 3.121093-.25 5.949219-1.949219 7.636719-4.578126 3.847656-5.988281 11.691406-7.886718 17.863281-4.324218l.429687.246094c3.085938 1.78125 5.292969 4.660156 6.214844 8.101562s.449219 7.035156-1.335938 10.128906l-.148437.253906c-.027344.046876-.050781.09375-.078125.140626-1.398438 2.511718-1.644531 5.519531-.683594 8.230468.964844 2.710938 3.058594 4.886719 5.726563 5.953125.140625.058594.28125.109375.421875.15625 12.625 4.40625 25.851562 6.636719 39.304687 6.636719 11.210938 0 22.320313-1.558594 33.019531-4.632812.035157-.011719.074219-.019532.109376-.03125 2.90625-.871094 5.269531-3.019532 6.410156-5.832032 1.140625-2.808594.949218-5.996094-.523438-8.648437-.023437-.042969-.050781-.085938-.074218-.132813-3.65625-6.355468-1.464844-14.511718 4.886718-18.179687.003906-.003907.007813-.003907.011719-.007813l.417969-.242187c3.085937-1.78125 6.679687-2.253907 10.121094-1.332031 3.441406.921874 6.320312 3.128906 8.097656 6.214843l.5625.972657c.109375.1875.222656.371093.34375.550781 1.597656 2.398437 4.167968 4 7.027344 4.378906 2.855468.382813 5.738281-.488281 7.90625-2.375 18.957031-16.507813 32.023437-38.09375 37.785156-62.425781.027344-.113282.054687-.230469.074218-.34375.589844-2.945313-.175781-6.007813-2.078124-8.328125-1.90625-2.320313-4.757813-3.671875-7.757813-3.671875zm-234.242187-387.902344c11.28125 0 20.953124 6.988281 24.933593 16.859375h-49.867187c3.980468-9.871094 13.652344-16.859375 24.933594-16.859375zm-70.914063 36.890625h141.828125v18.496094c-.023438.261719-.042969.527343-.042969.792969 0 .269531.019531.535156.042969.796874v14.945313h-24.007812v-13.328125c0-5.53125-4.484376-10.015625-10.015626-10.015625-5.527343 0-10.011718 4.484375-10.011718 10.015625v13.328125h-53.753906v-13.328125c0-5.53125-4.484376-10.015625-10.015626-10.015625s-10.015624 4.484375-10.015624 10.015625v13.328125h-24.007813zm-53.984375 368.296875v-338.992188h33.957031v15.742188c0 5.53125 4.484375 10.015625 10.015625 10.015625h161.855469c5.527344 0 10.011719-4.484375 10.011719-10.015625v-15.742188h33.957031v187.207032c-10.644531.265625-21.164063 1.921875-31.320313 4.964844-.09375.03125-.191406.0625-.289062.09375-2.824219.941406-5.09375 3.101562-6.175781 5.878906-1.023438 2.628906-.886719 5.574218.363281 8.089844 3.105469 6.273437.785156 13.929687-5.285156 17.433593l-.441406.253907c-6.238282 3.601562-14.121094 1.644531-17.941407-4.457032-1.503906-2.402344-3.972656-4.070312-6.78125-4.558594-3.007812-.527343-6.105469.355469-8.386719 2.386719-18.179687 16.171875-30.835937 37.136719-36.605468 60.640625-.035156.136719-.066406.28125-.09375.421875-.554688 2.769531.089844 5.660157 1.769531 7.933594 1.683594 2.273437 4.257813 3.734375 7.070313 4.015625.074218.007812.148437.015625.226562.019531 6.882812.53125 12.277344 6.363281 12.277344 13.277344v.511719c0 7.253906-5.679688 13.101562-12.929688 13.308594-2.929687.085937-5.695312 1.457031-7.535156 3.75-1.84375 2.300781-2.582031 5.304687-2.023438 8.191406.636719 3.257812 1.410157 6.464844 2.304688 9.632812h-138zm325.386719 35.21875c-3.730469-3.183594-8.148438-5.519531-13.023438-6.824219-8.609375-2.308593-17.601562-1.125-25.332031 3.339844l-.417969.242187c-12.007812 6.933594-18.078125 20.277344-16.386719 33.25-5.730468 1.015626-11.558593 1.523438-17.421874 1.523438-7.84375 0-15.589844-.90625-23.128907-2.710938.738281-4.585937.507813-9.320312-.730469-13.941406-2.308593-8.613281-7.828124-15.808594-15.550781-20.261718l-.429687-.25c-11.699219-6.753907-25.804688-5.660157-36.148438 1.78125-8.785156-10.410157-15.273437-22.414063-19.148437-35.414063 12.136719-4.984375 20.542969-16.867187 20.542969-30.835937v-.507813c0-13.140625-7.785157-24.722656-19.082032-30.121094 4.492188-12.792969 11.542969-24.472656 20.777344-34.425781 10.378906 7.859375 24.777344 9.128906 36.757812 2.214844l.441407-.253906c11.558593-6.675782 17.683593-19.371094 16.527343-31.980469 13.257813-2.597657 27.160157-2.453125 40.335938.410156-.648438 4.433594-.386719 8.988281.804688 13.445313 2.304687 8.609374 7.828124 15.808593 15.550781 20.265624l.429687.25c4.101563 2.367188 8.554688 3.8125 13.234375 4.292969 8.511719.886719 16.917969-1.597656 23.550781-6.597656 9.082032 10.347656 15.84375 22.347656 19.957032 35.414063-12.8125 4.664062-21.988282 16.964843-21.988282 31.371093v.480469c0 14.03125 8.707032 26.066406 21.003907 30.992188-4.535157 12.964843-11.691407 24.773437-21.125 34.851562zm0 0"/><path d="m301.902344 350.464844c-4.015625 3.800781-4.191406 10.140625-.390625 14.15625 6.78125 7.167968 10.519531 16.5 10.519531 26.273437 0 21.0625-17.132812 38.195313-38.195312 38.195313-21.058594 0-38.191407-17.132813-38.191407-38.195313 0-9.449219 3.476563-18.515625 9.789063-25.535156 3.699218-4.109375 3.363281-10.441406-.746094-14.140625s-10.441406-3.367188-14.144531.746094c-9.625 10.699218-14.929688 24.527344-14.929688 38.929687 0 32.105469 26.117188 58.226563 58.222657 58.226563 32.105468 0 58.222656-26.121094 58.222656-58.226563 0-14.914062-5.679688-29.136719-16-40.039062-3.800782-4.015625-10.136719-4.191407-14.15625-.390625zm0 0"/><path d="m266.777344 352.28125.277344.210938c1.8125 1.382812 3.945312 2.050781 6.0625 2.050781 3.019531 0 6-1.359375 7.972656-3.941407 3.351562-4.398437 2.503906-10.683593-1.894532-14.039062l-.273437-.207031c-4.402344-3.359375-10.683594-2.507813-14.039063 1.890625-3.351562 4.398437-2.503906 10.679687 1.894532 14.035156zm0 0"/><path d="m108.433594 162.757812h49.398437c5.53125 0 10.015625-4.484374 10.015625-10.015624s-4.484375-10.015626-10.015625-10.015626h-49.398437c-5.53125 0-10.015625 4.484376-10.015625 10.015626s4.484375 10.015624 10.015625 10.015624zm0 0"/><path d="m61.066406 213.414062h164.792969c5.53125 0 10.015625-4.484374 10.015625-10.015624s-4.484375-10.015626-10.015625-10.015626h-164.792969c-5.53125 0-10.015625 4.484376-10.015625 10.015626s4.484375 10.015624 10.015625 10.015624zm0 0"/><path d="m159.917969 252.589844c0-5.527344-4.484375-10.015625-10.015625-10.015625h-88.835938c-5.53125 0-10.015625 4.488281-10.015625 10.015625 0 5.53125 4.484375 10.015625 10.015625 10.015625h88.835938c5.53125 0 10.015625-4.484375 10.015625-10.015625zm0 0"/><path d="m61.066406 162.757812h17.21875c5.53125 0 10.015625-4.484374 10.015625-10.015624s-4.484375-10.015626-10.015625-10.015626h-17.21875c-5.527344 0-10.015625 4.484376-10.015625 10.015626s4.484375 10.015624 10.015625 10.015624zm0 0"/><path d="m195.339844 243.671875-.277344-.210937c-4.40625-3.34375-10.6875-2.480469-14.03125 1.925781s-2.484375 10.6875 1.921875 14.03125l.277344.210937c1.808593 1.371094 3.9375 2.035156 6.046875 2.035156 3.023437 0 6.015625-1.363281 7.984375-3.960937 3.34375-4.40625 2.480469-10.6875-1.921875-14.03125zm0 0"/><path d="m61.066406 334.511719c-5.53125 0-10.015625 4.484375-10.015625 10.015625v46.371094c0 5.527343 4.484375 10.015624 10.015625 10.015624s10.015625-4.488281 10.015625-10.015624v-46.371094c0-5.53125-4.484375-10.015625-10.015625-10.015625zm0 0"/></svg>