<svg id="Layer_1" data-name="Layer 1" xmlns="http://www.w3.org/2000/svg" viewBox="0 0 360 130"><defs><style>.cls-1{fill:#fff;}</style></defs><title>whitetext_sei</title><path class="cls-1" d="M48.53,66.77H47.24C43.5,66.77,40,64.2,40,59.93v-.44a1.33,1.33,0,0,1,1.29-1.29H43a1.3,1.3,0,0,1,1.28,1.29v.44c0,1.41,1.09,2.58,3,2.58h1.29c1.89,0,3-1.17,3-2.58,0-3-11.07-1.36-11.07-8.69,0-4.3,3.54-6.68,7.24-6.68h.45c3.74,0,7.24,2.58,7.24,6.84a1.32,1.32,0,0,1-1.29,1.29H52.39a1.29,1.29,0,0,1-1.28-1.29c0-1.44-1.09-2.57-3-2.57h-.45c-2,0-3,1.05-3,2.41,0,3,11.1,1.37,11.1,8.69C55.81,64.2,52.27,66.77,48.53,66.77Z"/><path class="cls-1" d="M76.21,57.8H66.39v1.69a3,3,0,0,0,3,3h.89a3,3,0,0,0,2.85-2.21,1.25,1.25,0,0,1,1.57-.89l1.65.4a1.34,1.34,0,0,1,.93,1.57,7.29,7.29,0,0,1-7,5.39h-.89a7.27,7.27,0,0,1-7.24-7.28V51.81a7.27,7.27,0,0,1,7.24-7.25h.89a7.27,7.27,0,0,1,7.24,7.25v4.7A1.33,1.33,0,0,1,76.21,57.8Zm-3-6a3,3,0,0,0-3-3h-.89a3,3,0,0,0-3,3v1.73h6.84Z"/><path class="cls-1" d="M100.07,66.33H84.7A1.27,1.27,0,0,1,83.41,65V63.35a1.27,1.27,0,0,1,1.29-1.28h6.4V49.27H86.39A1.32,1.32,0,0,1,85.1,48V46.25A1.28,1.28,0,0,1,86.39,45h7.68a1.28,1.28,0,0,1,1.29,1.24V62.07h4.71a1.26,1.26,0,0,1,1.25,1.28V65A1.27,1.27,0,0,1,100.07,66.33ZM94.52,38.18H91.1a1.27,1.27,0,0,1-1.29-1.29V33.47a1.27,1.27,0,0,1,1.29-1.25h3.42a1.25,1.25,0,0,1,1.24,1.25v3.42A1.26,1.26,0,0,1,94.52,38.18Zm0,42.61H91.1a1.27,1.27,0,0,1-1.29-1.28V76.09a1.26,1.26,0,0,1,1.29-1.25h3.42a1.25,1.25,0,0,1,1.24,1.25v3.42A1.26,1.26,0,0,1,94.52,80.79Zm0,15.39H91.1a1.27,1.27,0,0,1-1.29-1.29V91.47a1.27,1.27,0,0,1,1.29-1.25h3.42a1.25,1.25,0,0,1,1.24,1.25v3.42A1.26,1.26,0,0,1,94.52,96.18Z"/><path class="cls-1" d="M114.84,79.41a2.51,2.51,0,0,1-.2,1,2.17,2.17,0,0,1-.57.76,2.54,2.54,0,0,1-.83.48,3,3,0,0,1-1,.17h-.51a2.93,2.93,0,0,1-1-.17,2.35,2.35,0,0,1-.83-.48,2.09,2.09,0,0,1-.57-.76,2.19,2.19,0,0,1-.22-1v-.35a.15.15,0,0,1,.17-.17H110a.21.21,0,0,1,.13,0,.13.13,0,0,1,.05.12v.35a1.3,1.3,0,0,0,.43,1,1.61,1.61,0,0,0,1.12.39h.51a1.61,1.61,0,0,0,1.12-.39,1.28,1.28,0,0,0,.44-1,.79.79,0,0,0-.33-.67,3.05,3.05,0,0,0-.83-.39c-.34-.11-.7-.21-1.08-.31a5.13,5.13,0,0,1-1.08-.4,2.52,2.52,0,0,1-.84-.66,1.67,1.67,0,0,1-.33-1.09,2.12,2.12,0,0,1,.22-1,2.3,2.3,0,0,1,.56-.74,2.58,2.58,0,0,1,.83-.46,3.24,3.24,0,0,1,1-.16h.17a3,3,0,0,1,1,.17,2.6,2.6,0,0,1,.83.47,2.32,2.32,0,0,1,.56.77,2.19,2.19,0,0,1,.22,1v.17a.15.15,0,0,1-.17.17h-.69a.21.21,0,0,1-.13-.05.13.13,0,0,1,0-.12V76a1.3,1.3,0,0,0-.43-1,1.61,1.61,0,0,0-1.12-.39h-.17a1.68,1.68,0,0,0-1.13.36,1.19,1.19,0,0,0-.42.94.78.78,0,0,0,.33.67,3.05,3.05,0,0,0,.83.4c.34.11.7.21,1.09.31a5.13,5.13,0,0,1,1.08.4,2.58,2.58,0,0,1,.83.66A1.7,1.7,0,0,1,114.84,79.41Z"/><path class="cls-1" d="M123.09,79.24a2.47,2.47,0,0,1-.21,1,2.91,2.91,0,0,1-.56.82,2.69,2.69,0,0,1-.82.55,2.59,2.59,0,0,1-1,.2h-.34a2.55,2.55,0,0,1-1-.2,2.46,2.46,0,0,1-.82-.55,2.55,2.55,0,0,1-.56-.82,2.47,2.47,0,0,1-.21-1V76.13a2.39,2.39,0,0,1,.21-1,2.44,2.44,0,0,1,.56-.82,2.49,2.49,0,0,1,.82-.56,2.39,2.39,0,0,1,1-.21h.34a2.42,2.42,0,0,1,1,.21,2.69,2.69,0,0,1,.82.55,2.73,2.73,0,0,1,.56.81,2.47,2.47,0,0,1,.21,1,.15.15,0,0,1-.17.17h-.69a.19.19,0,0,1-.13-.05.14.14,0,0,1-.06-.12,1.54,1.54,0,0,0-.12-.61,1.54,1.54,0,0,0-.82-.82,1.53,1.53,0,0,0-.6-.12h-.34a1.54,1.54,0,0,0-.61.12,1.51,1.51,0,0,0-.49.33,1.91,1.91,0,0,0-.33.49,1.58,1.58,0,0,0-.12.61v3.12a1.53,1.53,0,0,0,.12.6,2.11,2.11,0,0,0,.33.49,1.49,1.49,0,0,0,1.1.46h.34a1.49,1.49,0,0,0,1.09-.46,1.63,1.63,0,0,0,.33-.49,1.46,1.46,0,0,0,.12-.6.18.18,0,0,1,.06-.13.19.19,0,0,1,.13,0h.69a.17.17,0,0,1,.12,0A.21.21,0,0,1,123.09,79.24Z"/><path class="cls-1" d="M131.65,81.48a.15.15,0,0,1-.17.17h-.69a.21.21,0,0,1-.13-.05.17.17,0,0,1,0-.12V76.12a1.58,1.58,0,0,0-.12-.61,1.69,1.69,0,0,0-.33-.49,1.51,1.51,0,0,0-.49-.33,1.54,1.54,0,0,0-.61-.12h-.34a1.53,1.53,0,0,0-.6.12,1.54,1.54,0,0,0-.82.82,1.58,1.58,0,0,0-.12.61v5.36a.14.14,0,0,1-.06.12.19.19,0,0,1-.13.05h-.69c-.11,0-.16-.06-.16-.17v-11c0-.11,0-.17.16-.17H127a.15.15,0,0,1,.13,0,.14.14,0,0,1,.06.12v3.61a2.55,2.55,0,0,1,1.54-.52h.34a2.39,2.39,0,0,1,1,.21,2.64,2.64,0,0,1,.83.56,2.57,2.57,0,0,1,.55.82,2.39,2.39,0,0,1,.21,1Z"/><path class="cls-1" d="M139.94,79.24a2.47,2.47,0,0,1-.21,1,2.72,2.72,0,0,1-.56.82,2.46,2.46,0,0,1-.82.55,2.55,2.55,0,0,1-1,.2H137a2.59,2.59,0,0,1-1-.2,2.69,2.69,0,0,1-.82-.55,2.72,2.72,0,0,1-.56-.82,2.47,2.47,0,0,1-.21-1V76.13a2.39,2.39,0,0,1,.21-1,2.6,2.6,0,0,1,.56-.82,2.72,2.72,0,0,1,.82-.56,2.42,2.42,0,0,1,1-.21h.34a2.39,2.39,0,0,1,1,.21,2.49,2.49,0,0,1,.82.56,2.6,2.6,0,0,1,.56.82,2.39,2.39,0,0,1,.21,1Zm-1-3.12a1.58,1.58,0,0,0-.12-.61,1.91,1.91,0,0,0-.33-.49,1.63,1.63,0,0,0-.49-.33,1.58,1.58,0,0,0-.61-.12H137a1.53,1.53,0,0,0-.6.12,1.54,1.54,0,0,0-.82.82,1.58,1.58,0,0,0-.12.61v3.12a1.53,1.53,0,0,0,.12.6,1.63,1.63,0,0,0,.33.49,1.49,1.49,0,0,0,1.09.46h.34a1.58,1.58,0,0,0,.61-.12,1.66,1.66,0,0,0,.49-.34,2.11,2.11,0,0,0,.33-.49,1.53,1.53,0,0,0,.12-.6Z"/><path class="cls-1" d="M148.37,79.24a2.47,2.47,0,0,1-.21,1,2.72,2.72,0,0,1-.56.82,2.57,2.57,0,0,1-1.82.75h-.34a2.57,2.57,0,0,1-1.82-.75,2.72,2.72,0,0,1-.56-.82,2.47,2.47,0,0,1-.21-1V76.13a2.39,2.39,0,0,1,.21-1,2.68,2.68,0,0,1,1.38-1.38,2.39,2.39,0,0,1,1-.21h.34a2.39,2.39,0,0,1,1,.21,2.68,2.68,0,0,1,1.38,1.38,2.39,2.39,0,0,1,.21,1Zm-1-3.12a1.59,1.59,0,0,0-.13-.61,1.51,1.51,0,0,0-.33-.49,1.41,1.41,0,0,0-.49-.33,1.53,1.53,0,0,0-.6-.12h-.34a1.5,1.5,0,0,0-.6.12,1.56,1.56,0,0,0-.5.33,1.66,1.66,0,0,0-.32.49,1.42,1.42,0,0,0-.13.61v3.12a1.38,1.38,0,0,0,.13.6,1.8,1.8,0,0,0,.32.49,1.58,1.58,0,0,0,.5.34,1.5,1.5,0,0,0,.6.12h.34a1.53,1.53,0,0,0,.6-.12,1.44,1.44,0,0,0,.49-.34,1.63,1.63,0,0,0,.33-.49,1.54,1.54,0,0,0,.13-.6Z"/><path class="cls-1" d="M157.5,81.48a.15.15,0,0,1-.17.17h-6.39a.21.21,0,0,1-.13-.05.13.13,0,0,1-.05-.12v-.69a.13.13,0,0,1,.05-.12.21.21,0,0,1,.13,0h2.93V71.31h-2.24a.21.21,0,0,1-.13,0,.13.13,0,0,1-.05-.12v-.69a.13.13,0,0,1,.05-.12.17.17,0,0,1,.13,0h3.11a.15.15,0,0,1,.17.17V80.62h2.42a.15.15,0,0,1,.17.17Z"/><path class="cls-1" d="M173.65,79.24a2.47,2.47,0,0,1-.21,1,2.72,2.72,0,0,1-.56.82,2.57,2.57,0,0,1-1.82.75h-.34a2.57,2.57,0,0,1-1.82-.75,2.72,2.72,0,0,1-.56-.82,2.47,2.47,0,0,1-.21-1V76.13a2.39,2.39,0,0,1,.21-1,2.68,2.68,0,0,1,1.38-1.38,2.39,2.39,0,0,1,1-.21h.34a2.39,2.39,0,0,1,1,.21,2.68,2.68,0,0,1,1.38,1.38,2.39,2.39,0,0,1,.21,1Zm-1-3.12a1.42,1.42,0,0,0-.13-.61,1.51,1.51,0,0,0-.33-.49,1.41,1.41,0,0,0-.49-.33,1.5,1.5,0,0,0-.6-.12h-.34a1.53,1.53,0,0,0-.6.12,1.41,1.41,0,0,0-.49.33,1.51,1.51,0,0,0-.33.49,1.58,1.58,0,0,0-.12.61v3.12a1.53,1.53,0,0,0,.12.6,1.63,1.63,0,0,0,.33.49,1.44,1.44,0,0,0,.49.34,1.53,1.53,0,0,0,.6.12h.34a1.5,1.5,0,0,0,.6-.12,1.44,1.44,0,0,0,.49-.34,1.63,1.63,0,0,0,.33-.49,1.38,1.38,0,0,0,.13-.6Z"/><path class="cls-1" d="M183.12,73.37a.15.15,0,0,1-.06.13.17.17,0,0,1-.13,0h-.68c-.12,0-.17-.05-.17-.17v-.69a1.63,1.63,0,0,0-.39-1.13,1.3,1.3,0,0,0-1-.43h-.51a1.28,1.28,0,0,0-1,.44,1.6,1.6,0,0,0-.39,1.13v1.39h1.9c.12,0,.17,0,.17.17v.67a.18.18,0,0,1,0,.13.18.18,0,0,1-.13.06h-1.9v5.51h2.93a.21.21,0,0,1,.13,0,.13.13,0,0,1,0,.12v.69a.13.13,0,0,1,0,.12.21.21,0,0,1-.13.05h-5.35a.15.15,0,0,1-.17-.17v-.69a.15.15,0,0,1,.17-.17h1.38V75.11h-1.21a.14.14,0,0,1-.12-.06.19.19,0,0,1-.05-.13v-.67a.15.15,0,0,1,.17-.17h1.21V72.69a3,3,0,0,1,.17-1,2.6,2.6,0,0,1,.47-.83,2.27,2.27,0,0,1,.76-.57,2.37,2.37,0,0,1,1-.21h.52a2.32,2.32,0,0,1,1.77.78,2.4,2.4,0,0,1,.48.82,3,3,0,0,1,.17,1Z"/><path class="cls-1" d="M198.93,78a.15.15,0,0,1-.17.17h-4.3v1a1.46,1.46,0,0,0,.12.6,1.63,1.63,0,0,0,.33.49,1.7,1.7,0,0,0,.5.34,1.53,1.53,0,0,0,.6.12h.34a1.46,1.46,0,0,0,.94-.33,1.52,1.52,0,0,0,.55-.82.17.17,0,0,1,.22-.12l.66.18a.15.15,0,0,1,.11.08.14.14,0,0,1,0,.14,2.39,2.39,0,0,1-.35.76,2.41,2.41,0,0,1-.56.59,2.78,2.78,0,0,1-.74.4,2.41,2.41,0,0,1-.85.15H196a2.59,2.59,0,0,1-1-.2,2.69,2.69,0,0,1-.82-.55,2.91,2.91,0,0,1-.56-.82,2.46,2.46,0,0,1-.2-1V76.13a2.38,2.38,0,0,1,.2-1,2.77,2.77,0,0,1,.56-.82,2.72,2.72,0,0,1,.82-.56,2.42,2.42,0,0,1,1-.21h.34a2.39,2.39,0,0,1,1,.21,2.64,2.64,0,0,1,.83.56,2.57,2.57,0,0,1,.55.82,2.39,2.39,0,0,1,.21,1Zm-1-1.9a1.58,1.58,0,0,0-.45-1.11,1.91,1.91,0,0,0-.49-.33,1.53,1.53,0,0,0-.6-.12H196a1.53,1.53,0,0,0-.6.12,2.17,2.17,0,0,0-.5.33,1.58,1.58,0,0,0-.45,1.11v1h3.43Z"/><path class="cls-1" d="M207.42,81.48a.15.15,0,0,1-.17.17h-.7a.15.15,0,0,1-.17-.17V76.12a1.58,1.58,0,0,0-.12-.61,1.54,1.54,0,0,0-.82-.82,1.46,1.46,0,0,0-.6-.12h-.35a1.53,1.53,0,0,0-.6.12,1.58,1.58,0,0,0-.48.33,1.51,1.51,0,0,0-.33.49,1.58,1.58,0,0,0-.12.61v5.36a.15.15,0,0,1-.17.17h-.7a.15.15,0,0,1-.17-.17V73.9c0-.12.05-.17.17-.17h.7c.11,0,.17,0,.17.16l0,.17a2.76,2.76,0,0,1,.72-.38,2.54,2.54,0,0,1,.83-.14h.35a2.44,2.44,0,0,1,1,.21,2.72,2.72,0,0,1,.82.56,2.57,2.57,0,0,1,.75,1.82Z"/><path class="cls-1" d="M216.12,79.24a2.46,2.46,0,0,1-.2,1,2.52,2.52,0,0,1-.55.82,2.59,2.59,0,0,1-2.82.55,2.61,2.61,0,0,1-.83-.55,2.69,2.69,0,0,1-.55-.82,2.47,2.47,0,0,1-.21-1V75.11h-1.21a.14.14,0,0,1-.12-.06.15.15,0,0,1,0-.13v-.67a.15.15,0,0,1,.17-.17H211V70.45a.15.15,0,0,1,.17-.17h.69a.17.17,0,0,1,.18.17v3.63h3.26c.12,0,.17,0,.17.17v.67a.18.18,0,0,1,0,.13.15.15,0,0,1-.13.06H212v4.13a1.46,1.46,0,0,0,.12.6,1.63,1.63,0,0,0,.33.49,1.51,1.51,0,0,0,2.18,0,1.63,1.63,0,0,0,.33-.49,1.46,1.46,0,0,0,.12-.6v-.35a.15.15,0,0,1,.17-.17h.7a.15.15,0,0,1,.17.17Z"/><path class="cls-1" d="M224.55,77.5c0,.11-.06.16-.17.16h-.7c-.12,0-.17,0-.17-.16V76.12a1.62,1.62,0,0,0-.13-.64A1.54,1.54,0,0,0,223,75a2,2,0,0,0-.49-.32,1.58,1.58,0,0,0-.58-.11h-.35a1.65,1.65,0,0,0-.57.11,1.8,1.8,0,0,0-.49.32,1.54,1.54,0,0,0-.34.48,1.5,1.5,0,0,0-.13.64v4.5H223a.15.15,0,0,1,.17.17v.69a.15.15,0,0,1-.17.17h-5.18a.15.15,0,0,1-.17-.17v-.69a.15.15,0,0,1,.17-.17h1.21V76.13a2.59,2.59,0,0,1,.19-1,2.7,2.7,0,0,1,.54-.83,2.65,2.65,0,0,1,.82-.56,2.34,2.34,0,0,1,1-.22H222a2.53,2.53,0,0,1,1,.21,2.83,2.83,0,0,1,.82.56,2.59,2.59,0,0,1,.54.83,2.52,2.52,0,0,1,.19,1Z"/><path class="cls-1" d="M232.64,78a.15.15,0,0,1-.17.17h-4.3v1a1.46,1.46,0,0,0,.12.6,1.63,1.63,0,0,0,.33.49,1.7,1.7,0,0,0,.5.34,1.53,1.53,0,0,0,.6.12h.34a1.46,1.46,0,0,0,.94-.33,1.52,1.52,0,0,0,.55-.82c0-.1.1-.14.22-.12l.66.18a.18.18,0,0,1,.11.08.14.14,0,0,1,0,.14,2.39,2.39,0,0,1-.35.76,2.41,2.41,0,0,1-.56.59,2.78,2.78,0,0,1-.74.4,2.41,2.41,0,0,1-.85.15h-.34a2.59,2.59,0,0,1-1-.2,2.69,2.69,0,0,1-.82-.55,2.72,2.72,0,0,1-.56-.82,2.47,2.47,0,0,1-.21-1V76.13a2.39,2.39,0,0,1,.21-1,2.6,2.6,0,0,1,.56-.82,2.72,2.72,0,0,1,.82-.56,2.42,2.42,0,0,1,1-.21h.34a2.39,2.39,0,0,1,1,.21,2.49,2.49,0,0,1,.82.56,2.44,2.44,0,0,1,.56.82,2.39,2.39,0,0,1,.21,1Zm-1-1.9a1.54,1.54,0,0,0-.12-.61,1.74,1.74,0,0,0-.33-.5,1.91,1.91,0,0,0-.49-.33,1.53,1.53,0,0,0-.6-.12h-.34a1.53,1.53,0,0,0-.6.12,2.17,2.17,0,0,0-.5.33,1.58,1.58,0,0,0-.45,1.11v1h3.43Z"/><path class="cls-1" d="M241.2,79.24a2.46,2.46,0,0,1-.2,1,2.91,2.91,0,0,1-.56.82,2.69,2.69,0,0,1-.82.55,2.59,2.59,0,0,1-1,.2h-.34a2.51,2.51,0,0,1-1.55-.51v3.62a.17.17,0,0,1,0,.12.21.21,0,0,1-.13,0h-.69a.15.15,0,0,1-.17-.17v-11c0-.12.05-.17.17-.17h.69a.2.2,0,0,1,.13,0,.17.17,0,0,1,0,.12v.17a2.55,2.55,0,0,1,1.55-.52h.34a2.42,2.42,0,0,1,1,.21,2.72,2.72,0,0,1,.82.56,2.77,2.77,0,0,1,.56.82,2.38,2.38,0,0,1,.2,1Zm-1-3.12a1.58,1.58,0,0,0-.12-.61,1.54,1.54,0,0,0-.82-.82,1.53,1.53,0,0,0-.6-.12h-.34a1.54,1.54,0,0,0-.61.12,1.54,1.54,0,0,0-.82.82,1.58,1.58,0,0,0-.12.61v3.12a1.53,1.53,0,0,0,.12.6,1.63,1.63,0,0,0,.33.49,1.49,1.49,0,0,0,1.1.46h.34a1.49,1.49,0,0,0,1.09-.46,1.63,1.63,0,0,0,.33-.49,1.53,1.53,0,0,0,.12-.6Z"/><path class="cls-1" d="M249.83,77.5c0,.11-.06.16-.17.16H249c-.11,0-.17,0-.17-.16V76.12a1.47,1.47,0,0,0-.13-.64,1.54,1.54,0,0,0-.34-.48,1.8,1.8,0,0,0-.49-.32,1.56,1.56,0,0,0-.57-.11h-.35a1.56,1.56,0,0,0-.57.11,1.86,1.86,0,0,0-.5.32,1.54,1.54,0,0,0-.34.48,1.66,1.66,0,0,0-.13.64v4.5h2.93a.15.15,0,0,1,.17.17v.69a.15.15,0,0,1-.17.17h-5.18a.15.15,0,0,1-.17-.17v-.69a.15.15,0,0,1,.17-.17h1.21V76.13a2.59,2.59,0,0,1,.19-1,2.7,2.7,0,0,1,.54-.83,2.65,2.65,0,0,1,.82-.56,2.34,2.34,0,0,1,1-.22h.36a2.45,2.45,0,0,1,1,.21,2.83,2.83,0,0,1,.82.56,2.59,2.59,0,0,1,.54.83,2.52,2.52,0,0,1,.19,1Z"/><path class="cls-1" d="M257.92,78a.15.15,0,0,1-.17.17h-4.3v1a1.46,1.46,0,0,0,.12.6,1.63,1.63,0,0,0,.33.49,1.7,1.7,0,0,0,.5.34,1.53,1.53,0,0,0,.6.12h.34a1.46,1.46,0,0,0,.94-.33,1.52,1.52,0,0,0,.55-.82.17.17,0,0,1,.22-.12l.66.18a.15.15,0,0,1,.11.08.14.14,0,0,1,0,.14,2.39,2.39,0,0,1-.35.76,2.41,2.41,0,0,1-.56.59,2.78,2.78,0,0,1-.74.4,2.41,2.41,0,0,1-.85.15H255a2.59,2.59,0,0,1-1-.2,2.69,2.69,0,0,1-.82-.55,2.91,2.91,0,0,1-.56-.82,2.46,2.46,0,0,1-.2-1V76.13a2.38,2.38,0,0,1,.2-1,2.77,2.77,0,0,1,.56-.82,2.72,2.72,0,0,1,.82-.56,2.42,2.42,0,0,1,1-.21h.34a2.47,2.47,0,0,1,1,.21,2.72,2.72,0,0,1,.82.56,2.57,2.57,0,0,1,.55.82,2.39,2.39,0,0,1,.21,1Zm-1-1.9a1.58,1.58,0,0,0-.45-1.11,1.91,1.91,0,0,0-.49-.33,1.53,1.53,0,0,0-.6-.12H255a1.53,1.53,0,0,0-.6.12,2.17,2.17,0,0,0-.5.33,1.58,1.58,0,0,0-.45,1.11v1h3.43Z"/><path class="cls-1" d="M266.41,81.48a.15.15,0,0,1-.17.17h-.7a.15.15,0,0,1-.17-.17V76.12a1.58,1.58,0,0,0-.12-.61,1.54,1.54,0,0,0-.82-.82,1.46,1.46,0,0,0-.6-.12h-.34a1.46,1.46,0,0,0-.6.12,1.54,1.54,0,0,0-.82.82,1.58,1.58,0,0,0-.12.61v5.36a.15.15,0,0,1-.17.17h-.7a.15.15,0,0,1-.17-.17V73.9a.15.15,0,0,1,.17-.17h.7c.11,0,.17,0,.17.16v.17a2.55,2.55,0,0,1,1.54-.52h.36a2.42,2.42,0,0,1,1,.21,2.72,2.72,0,0,1,.82.56,2.57,2.57,0,0,1,.75,1.82Z"/><path class="cls-1" d="M274.78,78a.15.15,0,0,1-.17.17H270.3v1a1.46,1.46,0,0,0,.12.6,1.87,1.87,0,0,0,.34.49,1.58,1.58,0,0,0,.5.34,1.46,1.46,0,0,0,.6.12h.33a1.48,1.48,0,0,0,.95-.33,1.58,1.58,0,0,0,.55-.82.16.16,0,0,1,.21-.12l.66.18a.2.2,0,0,1,.12.08.17.17,0,0,1,0,.14,2.36,2.36,0,0,1-.34.76,2.66,2.66,0,0,1-.57.59,2.72,2.72,0,0,1-.73.4,2.45,2.45,0,0,1-.85.15h-.34a2.55,2.55,0,0,1-1-.2,2.46,2.46,0,0,1-.82-.55,2.55,2.55,0,0,1-.56-.82,2.47,2.47,0,0,1-.21-1V76.13a2.39,2.39,0,0,1,.21-1,2.44,2.44,0,0,1,.56-.82,2.49,2.49,0,0,1,.82-.56,2.39,2.39,0,0,1,1-.21h.34a2.42,2.42,0,0,1,1,.21,2.72,2.72,0,0,1,.82.56,2.77,2.77,0,0,1,.56.82,2.39,2.39,0,0,1,.21,1Zm-1-1.9a1.58,1.58,0,0,0-.45-1.11,1.86,1.86,0,0,0-.48-.33,1.54,1.54,0,0,0-.61-.12h-.33a1.46,1.46,0,0,0-.6.12,2,2,0,0,0-.5.33,1.77,1.77,0,0,0-.34.5,1.54,1.54,0,0,0-.12.61v1h3.43Z"/><path class="cls-1" d="M283.13,81.48a.15.15,0,0,1-.17.17h-.7a.15.15,0,0,1-.17-.17v-.17a2.51,2.51,0,0,1-1.55.51h-.35a2.59,2.59,0,0,1-1-.2,2.69,2.69,0,0,1-.82-.55,2.88,2.88,0,0,1-.55-.82,2.63,2.63,0,0,1-.19-1V73.9c0-.12.05-.17.17-.17h.7a.15.15,0,0,1,.17.17v5.34a1.46,1.46,0,0,0,.12.6,1.63,1.63,0,0,0,.33.49,1.39,1.39,0,0,0,.48.34,1.53,1.53,0,0,0,.6.12h.35a1.49,1.49,0,0,0,1.09-.46,1.8,1.8,0,0,0,.32-.49,1.47,1.47,0,0,0,.13-.6V73.9c0-.12.05-.17.17-.17h.7a.15.15,0,0,1,.17.17Z"/><path class="cls-1" d="M292,77.5c0,.11-.06.16-.17.16h-.7c-.12,0-.17,0-.17-.16V76.12a1.62,1.62,0,0,0-.13-.64,1.42,1.42,0,0,0-.35-.48,1.75,1.75,0,0,0-.48-.32,1.62,1.62,0,0,0-.58-.11H289a1.65,1.65,0,0,0-.57.11A1.8,1.8,0,0,0,288,75a1.39,1.39,0,0,0-.34.48,1.5,1.5,0,0,0-.13.64v4.5h2.92a.15.15,0,0,1,.17.17v.69a.15.15,0,0,1-.17.17h-5.17a.15.15,0,0,1-.17-.17v-.69a.15.15,0,0,1,.17-.17h1.21V76.13a2.59,2.59,0,0,1,.19-1,2.67,2.67,0,0,1,.53-.83,2.77,2.77,0,0,1,.82-.56,2.38,2.38,0,0,1,1-.22h.35a2.53,2.53,0,0,1,1,.21,2.83,2.83,0,0,1,.82.56,2.59,2.59,0,0,1,.54.83,2.71,2.71,0,0,1,.19,1Z"/><path class="cls-1" d="M300.24,79.41a2.36,2.36,0,0,1-.21,1,2,2,0,0,1-.56.76,2.65,2.65,0,0,1-.83.48,3,3,0,0,1-1,.17h-.51a3,3,0,0,1-1-.17,2.4,2.4,0,0,1-.82-.48,2.09,2.09,0,0,1-.57-.76,2.19,2.19,0,0,1-.22-1v-.35a.15.15,0,0,1,.17-.17h.69a.21.21,0,0,1,.13,0,.13.13,0,0,1,.05.12v.35a1.3,1.3,0,0,0,.43,1,1.61,1.61,0,0,0,1.12.39h.51a1.61,1.61,0,0,0,1.12-.39,1.28,1.28,0,0,0,.44-1,.79.79,0,0,0-.33-.67,3.05,3.05,0,0,0-.83-.39c-.34-.11-.7-.21-1.08-.31a5.13,5.13,0,0,1-1.08-.4A2.52,2.52,0,0,1,295,77a1.67,1.67,0,0,1-.33-1.09,2.12,2.12,0,0,1,.22-1,2.3,2.3,0,0,1,.56-.74,2.58,2.58,0,0,1,.83-.46,3.24,3.24,0,0,1,1-.16h.17a3,3,0,0,1,1,.17,2.6,2.6,0,0,1,.83.47,2.32,2.32,0,0,1,.56.77,2.19,2.19,0,0,1,.22,1v.17a.15.15,0,0,1-.17.17h-.69a.21.21,0,0,1-.13-.05.13.13,0,0,1-.05-.12V76a1.3,1.3,0,0,0-.43-1,1.61,1.61,0,0,0-1.12-.39h-.17a1.68,1.68,0,0,0-1.13.36,1.19,1.19,0,0,0-.42.94.78.78,0,0,0,.33.67,3.05,3.05,0,0,0,.83.4c.34.11.7.21,1.09.31a5.13,5.13,0,0,1,1.08.4,2.58,2.58,0,0,1,.83.66A1.7,1.7,0,0,1,300.24,79.41Z"/><path class="cls-1" d="M308.62,81.48a.15.15,0,0,1-.17.17h-.69a.21.21,0,0,1-.13-.05.17.17,0,0,1-.05-.12V76.12a1.58,1.58,0,0,0-.12-.61,1.54,1.54,0,0,0-.82-.82,1.54,1.54,0,0,0-.61-.12h-.33a1.54,1.54,0,0,0-.61.12,1.54,1.54,0,0,0-.82.82,1.58,1.58,0,0,0-.12.61v5.36a.14.14,0,0,1-.06.12.17.17,0,0,1-.13.05h-.69c-.11,0-.16-.06-.16-.17v-11c0-.11.05-.17.16-.17H304a.19.19,0,0,1,.19.17v3.61a2.55,2.55,0,0,1,1.55-.52H306a2.47,2.47,0,0,1,1,.21,2.72,2.72,0,0,1,.82.56,2.77,2.77,0,0,1,.56.82,2.55,2.55,0,0,1,.2,1Z"/><path class="cls-1" d="M317.62,81.48a.15.15,0,0,1-.17.17h-6.22a.15.15,0,0,1-.17-.17v-.69a.15.15,0,0,1,.17-.17h2.92V74.75h-2.23c-.12,0-.17,0-.17-.17V73.9c0-.12.05-.17.17-.17H315c.12,0,.18,0,.18.17v6.72h2.25a.15.15,0,0,1,.17.17ZM315.36,72a.13.13,0,0,1-.05.12.18.18,0,0,1-.13,0h-1.36a.18.18,0,0,1-.13,0,.14.14,0,0,1-.06-.12V70.62a.16.16,0,0,1,.06-.13.18.18,0,0,1,.13,0h1.36a.18.18,0,0,1,.13,0,.15.15,0,0,1,.05.13Z"/><path class="cls-1" d="M325.48,79.24a2.47,2.47,0,0,1-.21,1,2.72,2.72,0,0,1-.56.82,2.57,2.57,0,0,1-1.82.75h-.34a2.51,2.51,0,0,1-1.55-.51v3.62a.17.17,0,0,1-.05.12.21.21,0,0,1-.13,0h-.69a.15.15,0,0,1-.17-.17v-11a.15.15,0,0,1,.17-.17h.69a.2.2,0,0,1,.13,0,.17.17,0,0,1,.05.12v.17a2.76,2.76,0,0,1,.72-.38,2.49,2.49,0,0,1,.83-.14h.34a2.39,2.39,0,0,1,1,.21,2.68,2.68,0,0,1,1.38,1.38,2.39,2.39,0,0,1,.21,1Zm-1.05-3.12a1.58,1.58,0,0,0-.12-.61,1.54,1.54,0,0,0-.82-.82,1.53,1.53,0,0,0-.6-.12h-.34a1.5,1.5,0,0,0-.6.12,1.41,1.41,0,0,0-.49.33,1.51,1.51,0,0,0-.33.49,1.42,1.42,0,0,0-.13.61v3.12a1.38,1.38,0,0,0,.13.6,1.63,1.63,0,0,0,.33.49,1.44,1.44,0,0,0,.49.34,1.5,1.5,0,0,0,.6.12h.34a1.49,1.49,0,0,0,1.09-.46,1.63,1.63,0,0,0,.33-.49,1.53,1.53,0,0,0,.12-.6Z"/><path class="cls-1" d="M115.16,97.15a.15.15,0,0,1,0,.14.13.13,0,0,1-.07.09l-.58.37a.35.35,0,0,1-.14,0,.14.14,0,0,1-.11-.07l-.35-.57a3,3,0,0,1-.78.45,2.49,2.49,0,0,1-.91.16h-.68a2.43,2.43,0,0,1-1-.2,2.36,2.36,0,0,1-.83-.55,2.6,2.6,0,0,1-.56-.82,2.55,2.55,0,0,1-.2-1v-1.9a2.73,2.73,0,0,1,.29-1.33,2.15,2.15,0,0,1,.86-.83c-.11-.19-.22-.37-.34-.55a4.94,4.94,0,0,1-.32-.55,5.17,5.17,0,0,1-.23-.59,2.25,2.25,0,0,1-.09-.64v-.17a2.39,2.39,0,0,1,.21-1,2.68,2.68,0,0,1,1.38-1.38,2.39,2.39,0,0,1,1-.21h.34a2.55,2.55,0,0,1,1,.2,2.6,2.6,0,0,1,.82.56,2.55,2.55,0,0,1,.56.81,2.42,2.42,0,0,1,.21,1v1.55a.19.19,0,0,1,0,.13.14.14,0,0,1-.12.06h-.69a.18.18,0,0,1-.13-.06.15.15,0,0,1,0-.13V88.6a1.38,1.38,0,0,0-.13-.6,1.51,1.51,0,0,0-.33-.49,1.41,1.41,0,0,0-.49-.33,1.5,1.5,0,0,0-.6-.12h-.34a1.53,1.53,0,0,0-.6.12,1.41,1.41,0,0,0-.49.33,1.51,1.51,0,0,0-.33.49,1.39,1.39,0,0,0-.13.61v.17a1.56,1.56,0,0,0,.2.78L113.8,95V92.59a.15.15,0,0,1,.17-.17h.7a.15.15,0,0,1,.17.17v2.59a2.51,2.51,0,0,1-.23,1.09ZM110.68,92a1.22,1.22,0,0,0-.49.49,1.7,1.7,0,0,0-.17.83v1.9a1.53,1.53,0,0,0,.12.6,1.6,1.6,0,0,0,.34.49,1.51,1.51,0,0,0,.49.33,1.39,1.39,0,0,0,.61.13h.67a1.56,1.56,0,0,0,.62-.13,1.8,1.8,0,0,0,.5-.35Z"/><path class="cls-1" d="M132.22,97.42c0,.11-.06.16-.17.16h-6.22c-.11,0-.17,0-.17-.16v-.69a.15.15,0,0,1,.17-.17h2.93V90.69h-2.24a.15.15,0,0,1-.17-.17v-.69a.15.15,0,0,1,.17-.17h3.11a.15.15,0,0,1,.17.17v6.73h2.25a.15.15,0,0,1,.17.17ZM130,87.93a.14.14,0,0,1-.06.12.19.19,0,0,1-.13,0h-1.36a.19.19,0,0,1-.13,0,.14.14,0,0,1-.06-.12V86.55a.14.14,0,0,1,.06-.12.19.19,0,0,1,.13-.05h1.36a.19.19,0,0,1,.13.05.14.14,0,0,1,.06.12Z"/><path class="cls-1" d="M140,97.42c0,.11-.06.16-.17.16h-.7a.15.15,0,0,1-.17-.17V92.06a1.54,1.54,0,0,0-.12-.61,1.51,1.51,0,0,0-.33-.49,1.58,1.58,0,0,0-.48-.33,1.54,1.54,0,0,0-.6-.13h-.35a1.47,1.47,0,0,0-.6.13,1.54,1.54,0,0,0-.82.82,1.54,1.54,0,0,0-.12.61v5.35a.15.15,0,0,1-.17.17h-.7c-.11,0-.17,0-.17-.16V89.83a.15.15,0,0,1,.17-.17h.7a.15.15,0,0,1,.17.17V90a2.46,2.46,0,0,1,1.54-.51h.36a2.42,2.42,0,0,1,1,.21,2.69,2.69,0,0,1,.82.55,2.52,2.52,0,0,1,.55.82,2.64,2.64,0,0,1,.2,1Z"/><path class="cls-1" d="M148.43,97.42c0,.11-.06.16-.17.16h-.7c-.12,0-.17,0-.17-.17V92.06a1.39,1.39,0,0,0-.13-.61,1.49,1.49,0,0,0-.32-.49,1.51,1.51,0,0,0-.49-.33,1.47,1.47,0,0,0-.6-.13h-.35a1.54,1.54,0,0,0-.6.13,1.47,1.47,0,0,0-.48.33,1.51,1.51,0,0,0-.33.49,1.54,1.54,0,0,0-.12.61v5.35a.15.15,0,0,1-.17.17h-.7c-.12,0-.17,0-.17-.16V89.83a.15.15,0,0,1,.17-.17h.7a.15.15,0,0,1,.17.17l0,.16a2.76,2.76,0,0,1,.72-.38,2.53,2.53,0,0,1,.83-.13h.35a2.44,2.44,0,0,1,1,.21,2.55,2.55,0,0,1,1.37,1.37,2.64,2.64,0,0,1,.2,1Z"/><path class="cls-1" d="M156.79,95.18a2.55,2.55,0,0,1-.2,1A2.77,2.77,0,0,1,156,97a2.52,2.52,0,0,1-.82.55,2.43,2.43,0,0,1-1,.2h-.33a2.46,2.46,0,0,1-1-.2A2.52,2.52,0,0,1,152,97a2.77,2.77,0,0,1-.56-.82,2.55,2.55,0,0,1-.2-1V92.07a2.64,2.64,0,0,1,.2-1,2.91,2.91,0,0,1,.56-.82,2.69,2.69,0,0,1,.82-.55,2.47,2.47,0,0,1,1-.21h.33a2.44,2.44,0,0,1,1,.21,2.69,2.69,0,0,1,.82.55,2.91,2.91,0,0,1,.56.82,2.64,2.64,0,0,1,.2,1Zm-1-3.12a1.54,1.54,0,0,0-.12-.61,1.54,1.54,0,0,0-.82-.82,1.55,1.55,0,0,0-.61-.13h-.33a1.55,1.55,0,0,0-.61.13,1.54,1.54,0,0,0-.82.82,1.54,1.54,0,0,0-.12.61v3.11a1.46,1.46,0,0,0,.12.6,1.51,1.51,0,0,0,.33.49,1.39,1.39,0,0,0,.49.34,1.55,1.55,0,0,0,.61.13h.33a1.55,1.55,0,0,0,.61-.13,1.39,1.39,0,0,0,.49-.34,1.51,1.51,0,0,0,.33-.49,1.46,1.46,0,0,0,.12-.6Z"/><path class="cls-1" d="M163.05,97.46a.28.28,0,0,1-.07.09l-.1,0h-.83l-.1,0a.18.18,0,0,1-.07-.09l-2.65-7.58c0-.15,0-.22.15-.22h.74l.09,0a.3.3,0,0,1,.08.07l2.17,6.37,2.18-6.37a.3.3,0,0,1,.08-.07l.09,0h.73c.16,0,.21.07.16.22Z"/><path class="cls-1" d="M174.34,97.42c0,.11-.06.16-.17.16h-.35a1.19,1.19,0,0,1-.62-.16,1.38,1.38,0,0,1-.44-.46,3.41,3.41,0,0,1-1,.59,3.17,3.17,0,0,1-1.08.2h-.35a2.38,2.38,0,0,1-.89-.16,2.24,2.24,0,0,1-.71-.44,1.9,1.9,0,0,1-.47-.65,2,2,0,0,1-.17-.82v-.34a1.93,1.93,0,0,1,.33-1.17,2.59,2.59,0,0,1,.83-.71,4.66,4.66,0,0,1,1.08-.42l1.08-.29a4.47,4.47,0,0,0,.83-.33.6.6,0,0,0,.33-.53,1.3,1.3,0,0,0-.43-1,1.61,1.61,0,0,0-1.12-.4h-.17a1.5,1.5,0,0,0-.6.13,1.54,1.54,0,0,0-.82.82,1.38,1.38,0,0,0-.13.6v.35a.15.15,0,0,1-.05.12.14.14,0,0,1-.11,0h-.7a.17.17,0,0,1-.13,0,.18.18,0,0,1,0-.12v-.35a2.39,2.39,0,0,1,.21-1,2.72,2.72,0,0,1,.56-.82,2.75,2.75,0,0,1,.82-.55,2.55,2.55,0,0,1,1-.2h.17a2.73,2.73,0,0,1,1,.17,2.44,2.44,0,0,1,.83.48,2.32,2.32,0,0,1,.56.77,2.19,2.19,0,0,1,.22,1v4.47a.18.18,0,0,0,0,.13.18.18,0,0,0,.13.06h.35a.15.15,0,0,1,.17.17Zm-1.73-4a2.65,2.65,0,0,1-.44.17l-.45.15-.76.2a4.87,4.87,0,0,0-.84.28,2.32,2.32,0,0,0-.67.45,1,1,0,0,0-.27.71v.33a1,1,0,0,0,.3.73,1.18,1.18,0,0,0,.89.32h.35a1.9,1.9,0,0,0,.7-.14,2.2,2.2,0,0,0,.6-.35,1.85,1.85,0,0,0,.43-.5,1.23,1.23,0,0,0,.16-.56Z"/><path class="cls-1" d="M182.41,95.18a2.38,2.38,0,0,1-.2,1,2.55,2.55,0,0,1-1.37,1.37,2.6,2.6,0,0,1-2,0A2.32,2.32,0,0,1,178,97a2.44,2.44,0,0,1-.56-.82,2.39,2.39,0,0,1-.21-1V91H176a.17.17,0,0,1-.12-.05.21.21,0,0,1,0-.13v-.68A.15.15,0,0,1,176,90h1.21V86.38a.15.15,0,0,1,.17-.17h.69a.21.21,0,0,1,.13.05.17.17,0,0,1,0,.12V90h3.27c.11,0,.16.06.16.17v.68a.2.2,0,0,1,0,.13.17.17,0,0,1-.12.05h-3.27v4.14a1.53,1.53,0,0,0,.12.6,2,2,0,0,0,.33.49,1.51,1.51,0,0,0,.49.33,1.38,1.38,0,0,0,.6.13,1.32,1.32,0,0,0,.6-.13,1.51,1.51,0,0,0,.49-.33,1.76,1.76,0,0,0,.33-.49,1.53,1.53,0,0,0,.12-.6v-.35a.15.15,0,0,1,.17-.17h.7c.12,0,.17,0,.17.17Z"/><path class="cls-1" d="M191.21,97.42c0,.11-.06.16-.17.16h-6.22c-.11,0-.17,0-.17-.16v-.69a.15.15,0,0,1,.17-.17h2.93V90.69h-2.24a.15.15,0,0,1-.17-.17v-.69a.15.15,0,0,1,.17-.17h3.11a.15.15,0,0,1,.17.17v6.73H191a.15.15,0,0,1,.17.17ZM189,87.93a.14.14,0,0,1-.06.12.19.19,0,0,1-.13,0h-1.36a.19.19,0,0,1-.13,0,.14.14,0,0,1-.06-.12V86.55a.14.14,0,0,1,.06-.12.19.19,0,0,1,.13-.05h1.36a.19.19,0,0,1,.13.05.14.14,0,0,1,.06.12Z"/><path class="cls-1" d="M198.93,95.18a2.39,2.39,0,0,1-.21,1,2.57,2.57,0,0,1-.55.82,2.46,2.46,0,0,1-.83.55,2.38,2.38,0,0,1-1,.2H196a2.42,2.42,0,0,1-1-.2,2.52,2.52,0,0,1-.82-.55,2.77,2.77,0,0,1-.56-.82,2.38,2.38,0,0,1-.2-1V92.07a2.46,2.46,0,0,1,.2-1,2.91,2.91,0,0,1,.56-.82,2.69,2.69,0,0,1,.82-.55,2.42,2.42,0,0,1,1-.21h.34a2.39,2.39,0,0,1,1,.21,2.61,2.61,0,0,1,.83.55,2.69,2.69,0,0,1,.55.82,2.47,2.47,0,0,1,.21,1Zm-1-3.12a1.54,1.54,0,0,0-.12-.61,1.69,1.69,0,0,0-.33-.49,1.51,1.51,0,0,0-.49-.33,1.55,1.55,0,0,0-.61-.13H196a1.54,1.54,0,0,0-.6.13,1.54,1.54,0,0,0-.82.82,1.54,1.54,0,0,0-.12.61v3.11a1.46,1.46,0,0,0,.12.6,1.51,1.51,0,0,0,.33.49,1.39,1.39,0,0,0,.49.34,1.54,1.54,0,0,0,.6.13h.34a1.55,1.55,0,0,0,.61-.13,1.39,1.39,0,0,0,.49-.34,1.69,1.69,0,0,0,.33-.49,1.46,1.46,0,0,0,.12-.6Z"/><path class="cls-1" d="M207.42,97.42c0,.11-.06.16-.17.16h-.7c-.12,0-.17,0-.17-.17V92.06a1.54,1.54,0,0,0-.12-.61,1.54,1.54,0,0,0-.82-.82,1.47,1.47,0,0,0-.6-.13h-.35a1.54,1.54,0,0,0-.6.13,1.58,1.58,0,0,0-.48.33,1.51,1.51,0,0,0-.33.49,1.54,1.54,0,0,0-.12.61v5.35a.15.15,0,0,1-.17.17h-.7c-.12,0-.17,0-.17-.16V89.83a.15.15,0,0,1,.17-.17h.7a.15.15,0,0,1,.17.17l0,.16a2.76,2.76,0,0,1,.72-.38,2.53,2.53,0,0,1,.83-.13h.35a2.44,2.44,0,0,1,1,.21,2.55,2.55,0,0,1,1.37,1.37,2.64,2.64,0,0,1,.2,1Z"/></svg>